<svg xmlns="http://www.w3.org/2000/svg" viewBox="0 0 24 24" fill="none" stroke="white" stroke-width="2" stroke-linecap="round" stroke-linejoin="round">
    <path d="M21.198 2.433a2.242 2.242 0 0 0-1.022.215l-17.15 6.498a2.245 2.245 0 0 0-.534 3.947l2.44 1.299 1.449 4.508c.211.657.931 1.039 1.584.82.15-.055.287-.116.421-.185l2.104-1.192 3.37 2.457c.557.405 1.334.453 1.945.109.611-.344.944-1.043.832-1.737l-3.418-16.195a2.242 2.242 0 0 0-2.634-1.899zm-11.135 9.763l7.246-3.366 3.088 9.135-1.413-.969-4.216-3.069-.989.441-2.385 1.383-1.331-3.555z"/>
</svg> 